<?xml version="1.0" standalone="no"?>
<svg xmlns:xlink="http://www.w3.org/1999/xlink" id="wave" style="transform:rotate(0deg); transition: 0.3s" viewBox="0 0 1440 160" version="1.1" xmlns="http://www.w3.org/2000/svg"><defs><linearGradient id="sw-gradient-0" x1="0" x2="0" y1="1" y2="0"><stop stop-color="rgba(157, 152, 240, 1)" offset="0%"/><stop stop-color="rgba(204, 177, 225, 1)" offset="100%"/></linearGradient></defs><path style="transform:translate(0, 0px); opacity:1" fill="url(#sw-gradient-0)" d="M0,0L21.8,8C43.6,16,87,32,131,42.7C174.5,53,218,59,262,53.3C305.5,48,349,32,393,24C436.4,16,480,16,524,26.7C567.3,37,611,59,655,69.3C698.2,80,742,80,785,69.3C829.1,59,873,37,916,34.7C960,32,1004,48,1047,69.3C1090.9,91,1135,117,1178,114.7C1221.8,112,1265,80,1309,64C1352.7,48,1396,48,1440,48C1483.6,48,1527,48,1571,40C1614.5,32,1658,16,1702,8C1745.5,0,1789,0,1833,2.7C1876.4,5,1920,11,1964,24C2007.3,37,2051,59,2095,58.7C2138.2,59,2182,37,2225,32C2269.1,27,2313,37,2356,58.7C2400,80,2444,112,2487,122.7C2530.9,133,2575,123,2618,112C2661.8,101,2705,91,2749,72C2792.7,53,2836,27,2880,26.7C2923.6,27,2967,53,3011,69.3C3054.5,85,3098,91,3120,93.3L3141.8,96L3141.8,160L3120,160C3098.2,160,3055,160,3011,160C2967.3,160,2924,160,2880,160C2836.4,160,2793,160,2749,160C2705.5,160,2662,160,2618,160C2574.5,160,2531,160,2487,160C2443.6,160,2400,160,2356,160C2312.7,160,2269,160,2225,160C2181.8,160,2138,160,2095,160C2050.9,160,2007,160,1964,160C1920,160,1876,160,1833,160C1789.1,160,1745,160,1702,160C1658.2,160,1615,160,1571,160C1527.3,160,1484,160,1440,160C1396.4,160,1353,160,1309,160C1265.5,160,1222,160,1178,160C1134.5,160,1091,160,1047,160C1003.6,160,960,160,916,160C872.7,160,829,160,785,160C741.8,160,698,160,655,160C610.9,160,567,160,524,160C480,160,436,160,393,160C349.1,160,305,160,262,160C218.2,160,175,160,131,160C87.3,160,44,160,22,160L0,160Z"/></svg>